<svg width="29" height="29" viewBox="0 0 29 29" fill="none" xmlns="http://www.w3.org/2000/svg">
<path fill-rule="evenodd" clip-rule="evenodd" d="M11.9352 2.49762C8.37114 2.49762 5.50924 5.25119 5.50924 8.68125C5.50924 12.1105 8.37152 14.8649 11.9352 14.8649C15.4996 14.8649 18.3611 12.1109 18.3611 8.68125C18.3611 5.25082 15.5 2.49762 11.9352 2.49762ZM11.9352 4.24178C14.499 4.24178 16.5486 6.21409 16.5486 8.68125C16.5486 11.1477 14.4985 13.1207 11.9352 13.1207C9.37254 13.1207 7.32174 11.1472 7.32174 8.68125C7.32174 6.21453 9.37209 4.24178 11.9352 4.24178ZM11.9352 16.9815C5.85723 16.9815 2.41711 18.0913 2.41711 21.2361C2.41711 24.3843 5.87249 25.5151 11.9352 25.5151L12.7127 25.5087C18.3043 25.4147 21.4532 24.2677 21.4532 21.2605C21.4532 18.1807 18.1464 17.0316 12.3268 16.9831L11.9352 16.9815ZM11.9352 18.7256C17.0119 18.7256 19.6407 19.5859 19.6407 21.2605C19.6407 22.9247 17.0184 23.7709 11.9352 23.7709C6.85838 23.7709 4.22961 22.9107 4.22961 21.2361C4.22961 19.6162 6.71076 18.7719 11.5283 18.7275L11.9352 18.7256ZM23.2049 9.38031C23.6637 9.38031 24.0429 9.70839 24.1029 10.1341L24.1112 10.2524V11.7116H25.677C26.1776 11.7116 26.5833 12.102 26.5833 12.5836C26.5833 13.0251 26.2424 13.39 25.8 13.4478L25.677 13.4557H24.1112V14.9151C24.1112 15.3968 23.7054 15.7872 23.2049 15.7872C22.7461 15.7872 22.3669 15.4591 22.3069 15.0335L22.2987 14.9151V13.4557H20.735C20.2345 13.4557 19.8287 13.0653 19.8287 12.5836C19.8287 12.1421 20.1697 11.7773 20.612 11.7195L20.735 11.7116H22.2987V10.2524C22.2987 9.77076 22.7044 9.38031 23.2049 9.38031Z" fill="white"/>
</svg>
